<svg xmlns="http://www.w3.org/2000/svg" 
   viewBox="0 0 500 500"><path d="M0 0h688v688H0z"/><g fill="#fff"><path d="M90.814 383.434c0 106.098 71.312 198.979 173.873 226.228a276.064 276.064 0 0079.14 11.595c104.126 0 199.556-58.44 246.981-151.147-52.99 84.01-145.522 135.03-244.895 135.03-4.754 0-8.58-.116-11.48-.348-110.735-4.29-198.28-95.43-198.28-206.168 0-16.35 1.855-32.583 5.681-48.236 15.306-63.891 72.355-108.881 138.101-108.881 9.16 0 18.437.811 27.481 2.725-1.043 4.464-1.507 8.986-1.507 13.624 0 33.743 27.365 61.224 61.224 61.224 22.263 0 42.903-12.175 53.629-31.714 8.406-11.885 12.929-26.147 12.929-40.757 0-23.771-11.828-46.034-31.482-59.253-34.643-24.856-70.17-35.82-107.374-32.67-116.707 15.073-204.02 110.94-204.02 228.748z"/><path d="M175.925 401.291c-.857-47.758 34.538-95.317 74.442-96.473 2.087 0 4.058 0 6.088.29-.174.057.174.057 1.217.057 33.743 0 61.224 27.366 61.224 61.224 0 26.786-17.51 50.556-43.193 58.441 19.538 57.513 73.573 96.243 134.449 96.243 13.566 0 27.133-1.971 40.294-5.856 87.72-25.8 147.9-106.389 147.9-197.76 0-33.511-8.233-66.442-23.771-96.01-38.82-74.078-107.29-126.924-186.737-146.672-8.696-2.663-20.269-4.294-24.582-8.032 120.175 8.369 222.221 93.797 250.453 212.449 5.276 19.712 8.06 40.12 8.06 60.76 0 129.404-104.94 234.344-234.344 234.344-73.051 0-141.812-34.09-185.99-91.953-16.582-23.77-25.51-52.063-25.51-81.052z"/><path d="M449.808 472.487c-50.253 10.134-84.004-6.193-95.836-33.858-5.74-9.509-8.754-20.524-8.754-31.656 0-33.858 27.365-61.224 61.223-61.224 15.422 0 30.264 5.798 41.57 16.292 22.785-25.8 35.308-58.963 35.308-93.401 0-39.077-16.118-76.298-44.295-103.083-38.264-36.41-89.168-56.702-142.043-56.702-70.964 0-136.826 36.294-174.511 96.126-29.337 46.15-44.875 99.953-44.875 154.915 0 46.845 11.364 92.995 33.047 134.39a277.568 277.568 0 01-44.41-150.624c0-76.414 31.308-149.349 86.734-201.586 43.946-43.889 103.547-68.587 165.814-68.587 129.405 0 234.343 104.823 234.343 234.343a231.51 231.51 0 01-18.089 89.749c-16.813 35.714-47.657 62.963-85.226 74.906zM110.99 307.369"/></g></svg>